<svg xmlns="http://www.w3.org/2000/svg" viewBox="0 0 238 125">
  <g id="card1" transform="translate(15908 -5648)">
    <rect id="Rectangle_59" data-name="Rectangle 59" width="238" height="125" rx="6" transform="translate(-15908 5648)" fill="#eee"/>
    <g id="Group_116" data-name="Group 116" transform="translate(-15789.198 5751.013)">
      <rect id="Rectangle_54" data-name="Rectangle 54" width="19" height="14" transform="translate(0.198 -0.013)" fill="#c4c1c1"/>
      <path id="Path_997" data-name="Path 997" d="M.232-5.985V-5.3H1.38V0h.732V-5.985Z" transform="translate(8.198 9.987)" fill="#4e4e4e"/>
    </g>
    <g id="Group_117" data-name="Group 117" transform="translate(-15761.364 5751.013)">
      <rect id="Rectangle_55" data-name="Rectangle 55" width="57" height="14" transform="translate(0.364 -0.013)" fill="#4e4e4e"/>
      <path id="Path_998" data-name="Path 998" d="M4.092,0h.666L2.7-4.9H2.124L.119,0H.772l.479-1.173H3.606ZM2.42-4.054l.956,2.318H1.481ZM8.431-5.129V-3.3a1.941,1.941,0,0,0-1.4-.561A1.9,1.9,0,0,0,5.082-1.89,1.9,1.9,0,0,0,7.032.083a1.932,1.932,0,0,0,1.453-.62L8.565,0h.461V-5.129ZM7.077-.493A1.352,1.352,0,0,1,5.69-1.89a1.352,1.352,0,0,1,1.387-1.4,1.359,1.359,0,0,1,1.393,1.4A1.363,1.363,0,0,1,7.077-.493Zm6.2-4.636V-3.3a1.941,1.941,0,0,0-1.4-.561A1.9,1.9,0,0,0,9.926-1.89,1.9,1.9,0,0,0,11.876.083a1.932,1.932,0,0,0,1.453-.62l.08.537h.461V-5.129ZM11.921-.493a1.352,1.352,0,0,1-1.387-1.4,1.352,1.352,0,0,1,1.387-1.4,1.359,1.359,0,0,1,1.393,1.4A1.363,1.363,0,0,1,11.921-.493ZM18.35-.55a.714.714,0,0,1-.795-.79v-1.9H18.74V-3.78H17.555v-.8h-.093L16.295-3.349v.106h.665v1.921A1.219,1.219,0,0,0,18.273,0h.49V-.55Zm2.862.633a1.938,1.938,0,0,0,2-1.973,1.938,1.938,0,0,0-2-1.973,1.935,1.935,0,0,0-2,1.973A1.939,1.939,0,0,0,21.212.083Zm0-.576a1.351,1.351,0,0,1-1.4-1.4,1.351,1.351,0,0,1,1.4-1.4,1.351,1.351,0,0,1,1.4,1.4,1.351,1.351,0,0,1-1.4,1.4Zm6.407.576a1.859,1.859,0,0,0,1.845-1.377h-.6a1.326,1.326,0,0,1-1.243.8,1.353,1.353,0,0,1-1.356-1.4,1.349,1.349,0,0,1,1.356-1.4,1.339,1.339,0,0,1,1.248.781h.589a1.841,1.841,0,0,0-1.838-1.357A1.925,1.925,0,0,0,25.655-1.89,1.926,1.926,0,0,0,27.619.083Zm5.9-3.863-.074.579a1.915,1.915,0,0,0-1.491-.662A1.916,1.916,0,0,0,29.995-1.89,1.92,1.92,0,0,0,31.951.083a1.916,1.916,0,0,0,1.483-.656L33.5,0h.493V-3.78ZM32-.493A1.361,1.361,0,0,1,30.6-1.89,1.361,1.361,0,0,1,32-3.287a1.35,1.35,0,0,1,1.386,1.4A1.35,1.35,0,0,1,32-.493ZM36.914-3.8a1.375,1.375,0,0,0-1.208.6l-.1-.575h-.423V0h.595V-2.054a1.039,1.039,0,0,1,1.081-1.183h.386V-3.8ZM39.455-.55a.714.714,0,0,1-.795-.79v-1.9h1.186V-3.78H38.66v-.8h-.093L37.4-3.349v.106h.665v1.921A1.219,1.219,0,0,0,39.378,0h.49V-.55Z" transform="translate(9.364 8.987)" fill="#c4c1c1"/>
    </g>
    <rect id="Rectangle_60" data-name="Rectangle 60" width="86" height="86" transform="translate(-15892 5658)" fill="#cbcaca"/>
    <rect id="Rectangle_61" data-name="Rectangle 61" width="82" height="8" transform="translate(-15789 5658)" fill="#8a8585"/>
    <rect id="Rectangle_62" data-name="Rectangle 62" width="37" height="9" transform="translate(-15789 5668)" fill="#8a8585"/>
    <rect id="Rectangle_63" data-name="Rectangle 63" width="70" height="5" transform="translate(-15789 5727)" fill="#ab9f9f"/>
    <rect id="Rectangle_64" data-name="Rectangle 64" width="43" height="4" transform="translate(-15789 5734)" fill="#ab9f9f"/>
    <path id="Path_990" data-name="Path 990" d="M6.123-2.231C6.123-3.9,4.7-4.244,3.57-4.526c-.778-.193-1.421-.344-1.421-.869,0-.455.525-.662,1.048-.662.6,0,1.122.295,1.122.917H5.905A2.2,2.2,0,0,0,3.877-7.464v-.715H2.6v.712A2.107,2.107,0,0,0,.552-5.324c0,1.605,1.361,1.929,2.48,2.2.8.191,1.465.342,1.465.913,0,.521-.591.825-1.194.825-.646,0-1.239-.33-1.239-1.02H.447A2.406,2.406,0,0,0,2.689.063V.831h1.27V.06A2.276,2.276,0,0,0,6.123-2.231ZM9.507-4.759h-.74l.13-1.15h2.715V-7.315H7.655l-.41,3.7.15.2H9.447a1.03,1.03,0,0,1,1.087,1.064.976.976,0,0,1-.977,1.022A.947.947,0,0,1,8.578-2.3H6.989A2.437,2.437,0,0,0,9.557.132a2.469,2.469,0,0,0,2.561-2.488,2.425,2.425,0,0,0-2.611-2.4Zm6.632-.1a2.333,2.333,0,0,0-.68.1c.446-.779.882-1.514,1.493-2.574H15.226l-1.454,2.5A4.449,4.449,0,0,0,13.014-2.5,2.587,2.587,0,0,0,15.791.132,2.59,2.59,0,0,0,18.546-2.5,2.287,2.287,0,0,0,16.139-4.857ZM15.78-1.325A1.137,1.137,0,0,1,14.6-2.5,1.138,1.138,0,0,1,15.78-3.688,1.132,1.132,0,0,1,16.962-2.5,1.131,1.131,0,0,1,15.78-1.325ZM22.318.132c1.819,0,2.964-1.463,2.964-3.8s-1.134-3.793-2.964-3.793S19.352-6,19.352-3.663,20.5.132,22.318.132Zm0-1.466c-.9,0-1.382-.824-1.382-2.329s.488-2.327,1.382-2.327,1.38.832,1.38,2.336S23.21-1.334,22.318-1.334Z" transform="translate(-15789 5691)" fill="#4e4e4e"/>
    <g id="Group_118" data-name="Group 118" transform="translate(-15784.441 5699.387)">
      <rect id="Rectangle_65" data-name="Rectangle 65" width="59" height="14" rx="7" transform="translate(-5.559 -3.387)" fill="#0f77e1"/>
      <g id="Group_98" data-name="Group 98">
        <path id="Path_907" data-name="Path 907" d="M52.689,50.978a1.751,1.751,0,1,1,0-2.2l1.806-.806a3.7,3.7,0,1,0,0,3.805Z" transform="translate(-47.63 -46.18)" fill="#fff"/>
        <path id="XMLID_24980_" d="M73.786,56.71l-1.828.814-1.828.816,1.828.816,1.828.814L73.3,58.339h0Z" transform="translate(-65.708 -54.64)" fill="#fff"/>
      </g>
    </g>
  </g>
</svg>
