<svg xmlns="http://www.w3.org/2000/svg" viewBox="0 0 439 414">
  <g id="Group_130" data-name="Group 130" transform="translate(-73 -76)">
    <rect id="Rectangle_73" data-name="Rectangle 73" width="439" height="414" transform="translate(73 76)" fill="#eee" />
    <path id="Path_1022" data-name="Path 1022" d="M8.423.317a7.128,7.128,0,0,0,7.159-6.065H12.377a3.984,3.984,0,0,1-3.954,3.03A4.391,4.391,0,0,1,4.055-7.333a4.421,4.421,0,0,1,4.368-4.649,4.04,4.04,0,0,1,3.925,2.82h3.188a7.091,7.091,0,0,0-7.113-5.855A7.48,7.48,0,0,0,.832-7.333,7.471,7.471,0,0,0,8.423.317ZM27.046-11.357l-.328,1.084a5.53,5.53,0,0,0-3.726-1.387,5.81,5.81,0,0,0-5.949,5.974A5.831,5.831,0,0,0,22.993.321a5.512,5.512,0,0,0,3.675-1.352l.264,1.015h2.4v-11.34Zm-3.8,8.778a3.017,3.017,0,0,1-3.091-3.108A3.017,3.017,0,0,1,23.243-8.8,3.012,3.012,0,0,1,26.33-5.687,3.012,3.012,0,0,1,23.243-2.579ZM38.2-11.4a3.869,3.869,0,0,0-3.289,1.452l-.545-1.389H32.4V0h3.066V-5.891c0-1.854.683-2.619,2.411-2.619h1.331V-11.4Zm8.5,8.673a1.578,1.578,0,0,1-1.747-1.726V-8.875h3.077V-11.34H44.907V-14.3h-.586L39.843-9.538v.663h2.05v4.826A3.733,3.733,0,0,0,45.921,0H48.1V-2.73Z" transform="translate(86 109)" fill="#8a8585" />
    <rect id="Rectangle_74" data-name="Rectangle 74" width="410" height="44" transform="translate(86 120)" fill="#c7c7c7" />
    <rect id="Rectangle_75" data-name="Rectangle 75" width="410" height="134" transform="translate(86 160)" fill="#e1e1e1" />
    <rect id="Rectangle_76" data-name="Rectangle 76" width="37" height="37" transform="translate(111 176)" fill="#ab9f9f" />
    <rect id="Rectangle_78" data-name="Rectangle 78" width="37" height="37" transform="translate(111 225)" fill="#ab9f9f" />
    <rect id="Rectangle_77" data-name="Rectangle 77" width="120" height="10" transform="translate(170 190)" fill="#ab9f9f" />
    <rect id="Rectangle_79" data-name="Rectangle 79" width="120" height="10" transform="translate(170 239)" fill="#ab9f9f" />
    <path id="Path_1021" data-name="Path 1021" d="M5.566-2.028c0-1.515-1.292-1.83-2.321-2.086-.707-.175-1.292-.313-1.292-.79,0-.414.477-.6.953-.6.545,0,1.02.268,1.02.834H5.368A2,2,0,0,0,3.525-6.785v-.65H2.365v.647A1.916,1.916,0,0,0,.5-4.84c0,1.459,1.237,1.754,2.255,2,.727.174,1.332.311,1.332.83,0,.474-.537.75-1.086.75-.587,0-1.126-.3-1.126-.927H.406A2.187,2.187,0,0,0,2.444.057v.7H3.6v-.7A2.069,2.069,0,0,0,5.566-2.028Zm.8-4.622V-5.4H7.4V0H8.8V-6.65Zm6.58,2.235a2.12,2.12,0,0,0-.618.094c.406-.708.8-1.376,1.358-2.34H12.112L10.79-4.385a4.044,4.044,0,0,0-.689,2.11A2.351,2.351,0,0,0,12.625.12a2.355,2.355,0,0,0,2.5-2.395,2.079,2.079,0,0,0-2.188-2.141ZM12.615-1.2a1.034,1.034,0,0,1-1.075-1.07,1.035,1.035,0,0,1,1.075-1.078A1.029,1.029,0,0,1,13.69-2.275,1.028,1.028,0,0,1,12.615-1.2Zm6,1.325c1.654,0,2.694-1.33,2.694-3.45s-1.031-3.448-2.694-3.448-2.7,1.319-2.7,3.448S16.964.12,18.619.12Zm0-1.333c-.815,0-1.256-.749-1.256-2.117s.444-2.115,1.256-2.115,1.254.757,1.254,2.124S19.43-1.213,18.619-1.213Z" transform="translate(312 198)" fill="#8a8585" />
    <path id="Path_1020" data-name="Path 1020" d="M5.566-2.028c0-1.515-1.292-1.83-2.321-2.086-.707-.175-1.292-.313-1.292-.79,0-.414.477-.6.953-.6.545,0,1.02.268,1.02.834H5.368A2,2,0,0,0,3.525-6.785v-.65H2.365v.647A1.916,1.916,0,0,0,.5-4.84c0,1.459,1.237,1.754,2.255,2,.727.174,1.332.311,1.332.83,0,.474-.537.75-1.086.75-.587,0-1.126-.3-1.126-.927H.406A2.187,2.187,0,0,0,2.444.057v.7H3.6v-.7A2.069,2.069,0,0,0,5.566-2.028Zm.8-4.622V-5.4H7.4V0H8.8V-6.65ZM12.849.12c1.654,0,2.694-1.33,2.694-3.45s-1.031-3.448-2.694-3.448-2.7,1.319-2.7,3.448S11.194.12,12.849.12Zm0-1.333c-.815,0-1.256-.749-1.256-2.117s.444-2.115,1.256-2.115S14.1-4.689,14.1-3.322,13.66-1.213,12.849-1.213ZM19.249.12c1.654,0,2.694-1.33,2.694-3.45s-1.031-3.448-2.694-3.448-2.7,1.319-2.7,3.448S17.594.12,19.249.12Zm0-1.333c-.815,0-1.256-.749-1.256-2.117s.444-2.115,1.256-2.115S20.5-4.689,20.5-3.322,20.06-1.213,19.249-1.213Z" transform="translate(312 247)" fill="#8a8585" />
    <path id="Path_1019" data-name="Path 1019" d="M5.566-2.028c0-1.515-1.292-1.83-2.321-2.086-.707-.175-1.292-.313-1.292-.79,0-.414.477-.6.953-.6.545,0,1.02.268,1.02.834H5.368A2,2,0,0,0,3.525-6.785v-.65H2.365v.647A1.916,1.916,0,0,0,.5-4.84c0,1.459,1.237,1.754,2.255,2,.727.174,1.332.311,1.332.83,0,.474-.537.75-1.086.75-.587,0-1.126-.3-1.126-.927H.406A2.187,2.187,0,0,0,2.444.057v.7H3.6v-.7A2.069,2.069,0,0,0,5.566-2.028Zm.8-4.622V-5.4H7.4V0H8.8V-6.65Zm6.58,2.235a2.12,2.12,0,0,0-.618.094c.406-.708.8-1.376,1.358-2.34H12.112L10.79-4.385a4.044,4.044,0,0,0-.689,2.11A2.351,2.351,0,0,0,12.625.12a2.355,2.355,0,0,0,2.5-2.395,2.079,2.079,0,0,0-2.188-2.141ZM12.615-1.2a1.034,1.034,0,0,1-1.075-1.07,1.035,1.035,0,0,1,1.075-1.078A1.029,1.029,0,0,1,13.69-2.275,1.028,1.028,0,0,1,12.615-1.2Zm6,1.325c1.654,0,2.694-1.33,2.694-3.45s-1.031-3.448-2.694-3.448-2.7,1.319-2.7,3.448S16.964.12,18.619.12Zm0-1.333c-.815,0-1.256-.749-1.256-2.117s.444-2.115,1.256-2.115,1.254.757,1.254,2.124S19.43-1.213,18.619-1.213Z" transform="translate(443 200)" fill="#8a8585" />
    <path id="Path_1018" data-name="Path 1018" d="M5.566-2.028c0-1.515-1.292-1.83-2.321-2.086-.707-.175-1.292-.313-1.292-.79,0-.414.477-.6.953-.6.545,0,1.02.268,1.02.834H5.368A2,2,0,0,0,3.525-6.785v-.65H2.365v.647A1.916,1.916,0,0,0,.5-4.84c0,1.459,1.237,1.754,2.255,2,.727.174,1.332.311,1.332.83,0,.474-.537.75-1.086.75-.587,0-1.126-.3-1.126-.927H.406A2.187,2.187,0,0,0,2.444.057v.7H3.6v-.7A2.069,2.069,0,0,0,5.566-2.028Zm3.413.687c1.554-1.8,1.9-2.542,1.9-3.358A2.073,2.073,0,0,0,8.657-6.786,2.041,2.041,0,0,0,6.473-4.681v.144H7.9v-.127a.74.74,0,0,1,.779-.789.728.728,0,0,1,.762.771c0,.687-.358,1.206-3.1,4.37V0h4.662V-1.341Zm5.843-3.074a2.12,2.12,0,0,0-.618.094c.406-.708.8-1.376,1.358-2.34H13.992L12.67-4.385a4.044,4.044,0,0,0-.689,2.11A2.351,2.351,0,0,0,14.505.12a2.355,2.355,0,0,0,2.5-2.395,2.079,2.079,0,0,0-2.188-2.141ZM14.5-1.2a1.034,1.034,0,0,1-1.075-1.07A1.035,1.035,0,0,1,14.5-3.353,1.029,1.029,0,0,1,15.57-2.275,1.028,1.028,0,0,1,14.5-1.2ZM20.5.12c1.654,0,2.694-1.33,2.694-3.45S22.163-6.778,20.5-6.778,17.8-5.459,17.8-3.33,18.844.12,20.5.12Zm0-1.333c-.815,0-1.256-.749-1.256-2.117s.444-2.115,1.256-2.115,1.255.757,1.255,2.124S21.31-1.213,20.5-1.213Z" transform="translate(442 249)" fill="#8a8585" />
    <g id="Group_124" data-name="Group 124" transform="translate(370 186.757)">
      <rect id="Rectangle_54" data-name="Rectangle 54" width="23" height="17" transform="translate(0 0.243)" fill="#c4c1c1" />
      <text id="_1" data-name="1" transform="translate(10 12.243)" fill="#4e4e4e" font-size="11" font-family="Mont-Regular, Mont">
        <tspan x="0" y="0">1</tspan>
      </text>
    </g>
    <g id="Group_129" data-name="Group 129" transform="translate(370 233.832)">
      <rect id="Rectangle_54-2" data-name="Rectangle 54" width="23" height="17" transform="translate(0 0.169)" fill="#c4c1c1" />
      <path id="Path_1023" data-name="Path 1023" d="M.283-7.315v.835h1.4V0h.895V-7.315Z" transform="translate(10 12.168)" fill="#4e4e4e" />
    </g>
    <g id="Group_137" data-name="Group 137" transform="translate(88 303)">
      <rect id="Rectangle_54-3" data-name="Rectangle 54" width="126" height="23" fill="#c4c1c1" />
      <g id="Group_125" data-name="Group 125" transform="translate(111.999 0)">
        <rect id="Rectangle_80" data-name="Rectangle 80" width="101" height="23" transform="translate(0.001 0)" fill="#4e4e4e" />
        <path id="Path_1024" data-name="Path 1024" d="M5.846,0H6.8L3.854-7H3.035L.171,0H1.1l.684-1.676H5.152ZM3.457-5.792,4.822-2.481H2.115Zm7.238.273a2.734,2.734,0,0,0-2.113.944L8.412-5.4H7.827V1.927h.85V-.723a2.743,2.743,0,0,0,2.018.841A2.719,2.719,0,0,0,13.47-2.7a2.714,2.714,0,0,0-2.776-2.818ZM10.63-.7a1.945,1.945,0,0,1-1.99-2,1.944,1.944,0,0,1,1.99-2,1.929,1.929,0,0,1,1.98,2,1.929,1.929,0,0,1-1.98,2Zm6.994-4.814a2.734,2.734,0,0,0-2.113.944L15.342-5.4h-.585V1.927h.85V-.723a2.743,2.743,0,0,0,2.018.841A2.719,2.719,0,0,0,20.4-2.7a2.714,2.714,0,0,0-2.776-2.818ZM17.56-.7a1.945,1.945,0,0,1-1.99-2,1.944,1.944,0,0,1,1.99-2,1.929,1.929,0,0,1,1.98,2,1.929,1.929,0,0,1-1.98,2Zm4.126.7h.85V-7.327h-.85Zm6.508-5.4L26.387-1.313,24.467-5.4h-.925l2.4,5.032-.194.4c-.434.9-.689,1.123-1.412,1.123H23.9v.768h.509c1.019,0,1.533-.425,2.115-1.7L29.1-5.4ZM34.845.118a2.655,2.655,0,0,0,2.636-1.967h-.86A1.894,1.894,0,0,1,34.845-.7a1.934,1.934,0,0,1-1.937-2,1.927,1.927,0,0,1,1.937-2A1.912,1.912,0,0,1,36.629-3.58h.842a2.63,2.63,0,0,0-2.625-1.939A2.75,2.75,0,0,0,32.04-2.7,2.751,2.751,0,0,0,34.845.118Zm6.257,0A2.769,2.769,0,0,0,43.966-2.7,2.769,2.769,0,0,0,41.1-5.518,2.764,2.764,0,0,0,38.24-2.7,2.77,2.77,0,0,0,41.1.118Zm0-.823a1.93,1.93,0,0,1-1.995-2,1.93,1.93,0,0,1,1.995-2,1.93,1.93,0,0,1,1.995,2A1.93,1.93,0,0,1,41.1-.7Zm6.457.823a2.245,2.245,0,0,0,2.394-2.4V-5.4H49.1v2.985A1.512,1.512,0,0,1,47.559-.7a1.512,1.512,0,0,1-1.544-1.711V-5.4h-.85v3.122A2.249,2.249,0,0,0,47.559.118Zm6.885-5.637a2.734,2.734,0,0,0-2.113.944L52.162-5.4h-.585V1.927h.85V-.723a2.743,2.743,0,0,0,2.018.841A2.719,2.719,0,0,0,57.22-2.7a2.714,2.714,0,0,0-2.776-2.818ZM54.38-.7a1.945,1.945,0,0,1-1.99-2,1.944,1.944,0,0,1,1.99-2,1.929,1.929,0,0,1,1.98,2,1.929,1.929,0,0,1-1.98,2Zm6.562.823A2.769,2.769,0,0,0,63.806-2.7a2.769,2.769,0,0,0-2.863-2.818A2.764,2.764,0,0,0,58.08-2.7,2.77,2.77,0,0,0,60.943.118Zm0-.823a1.93,1.93,0,0,1-1.995-2,1.93,1.93,0,0,1,1.995-2,1.93,1.93,0,0,1,1.995,2,1.93,1.93,0,0,1-1.995,2ZM67.8-5.518a2.269,2.269,0,0,0-1.934.965L65.7-5.4h-.6V0h.85V-2.946a1.693,1.693,0,0,1,1.634-1.8c.939,0,1.453.612,1.453,1.707V0h.85V-3.235A2.078,2.078,0,0,0,67.8-5.518Z" transform="translate(15.001 14)" fill="#c4c1c1" />
      </g>
    </g>
    <g id="Group_126" data-name="Group 126" transform="translate(395 303)">
      <rect id="Rectangle_80-2" data-name="Rectangle 80" width="101" height="23" transform="translate(0 0)" fill="#4e4e4e" />
      <path id="Path_1025" data-name="Path 1025" d="M3.627.116A2.644,2.644,0,0,0,6.37-2.607V-7H5.483v4.33A1.808,1.808,0,0,1,3.627-.743,1.81,1.81,0,0,1,1.76-2.67V-7H.874v4.394A2.646,2.646,0,0,0,3.627.116Zm7.268-5.635a2.734,2.734,0,0,0-2.113.944L8.612-5.4H8.027V1.927h.85V-.723a2.743,2.743,0,0,0,2.018.841A2.719,2.719,0,0,0,13.67-2.7a2.714,2.714,0,0,0-2.776-2.818ZM10.83-.7a1.945,1.945,0,0,1-1.99-2,1.944,1.944,0,0,1,1.99-2,1.929,1.929,0,0,1,1.98,2,1.929,1.929,0,0,1-1.98,2Zm8.483-6.623v2.61a2.773,2.773,0,0,0-2-.8A2.713,2.713,0,0,0,14.53-2.7,2.719,2.719,0,0,0,17.315.118a2.761,2.761,0,0,0,2.076-.886L19.506,0h.658V-7.327ZM17.379-.7a1.932,1.932,0,0,1-1.981-2,1.931,1.931,0,0,1,1.981-2,1.941,1.941,0,0,1,1.99,2A1.947,1.947,0,0,1,17.379-.7Zm9.1-4.7-.106.828a2.736,2.736,0,0,0-2.13-.946A2.737,2.737,0,0,0,21.45-2.7,2.742,2.742,0,0,0,24.244.118a2.737,2.737,0,0,0,2.119-.937l.09.818h.7V-5.4ZM24.308-.7a1.944,1.944,0,0,1-1.99-2,1.945,1.945,0,0,1,1.99-2,1.929,1.929,0,0,1,1.98,2,1.929,1.929,0,0,1-1.98,2Zm6.8-.082a1.021,1.021,0,0,1-1.135-1.129V-4.632h1.694V-5.4H29.968V-6.543h-.133L28.168-4.784v.152h.95v2.745A1.742,1.742,0,0,0,30.994,0h.7V-.786Zm6.7-1.892a2.694,2.694,0,0,0-2.721-2.84A2.726,2.726,0,0,0,32.331-2.7,2.727,2.727,0,0,0,35.084.118a2.707,2.707,0,0,0,2.578-1.764h-.9a1.865,1.865,0,0,1-1.681.933,1.835,1.835,0,0,1-1.9-1.657h4.6C37.8-2.473,37.806-2.576,37.806-2.678ZM35.084-4.714a1.831,1.831,0,0,1,1.869,1.557H33.2a1.838,1.838,0,0,1,1.881-1.557ZM44.075.118a2.655,2.655,0,0,0,2.636-1.967h-.86A1.894,1.894,0,0,1,44.075-.7a1.934,1.934,0,0,1-1.937-2,1.927,1.927,0,0,1,1.937-2A1.912,1.912,0,0,1,45.859-3.58H46.7a2.63,2.63,0,0,0-2.625-1.939A2.75,2.75,0,0,0,41.27-2.7,2.751,2.751,0,0,0,44.075.118ZM52.5-5.4l-.106.828a2.736,2.736,0,0,0-2.13-.946A2.737,2.737,0,0,0,47.47-2.7,2.742,2.742,0,0,0,50.264.118a2.737,2.737,0,0,0,2.119-.937l.09.818h.7V-5.4ZM50.328-.7a1.944,1.944,0,0,1-1.99-2,1.945,1.945,0,0,1,1.99-2,1.929,1.929,0,0,1,1.98,2,1.929,1.929,0,0,1-1.98,2Zm7.026-4.724a1.964,1.964,0,0,0-1.726.85L55.49-5.4h-.6V0h.85V-2.934a1.484,1.484,0,0,1,1.545-1.69h.551v-.8Zm3.63,4.642a1.021,1.021,0,0,1-1.135-1.129V-4.632h1.694V-5.4H59.848V-6.543h-.133L58.048-4.784v.152H59v2.745A1.742,1.742,0,0,0,60.874,0h.7V-.786Z" transform="translate(19 14)" fill="#c4c1c1" />
    </g>
    <g id="btn" transform="translate(88 333.337)">
      <rect id="Rectangle_81" data-name="Rectangle 81" width="101" height="24" rx="12" transform="translate(0 -0.337)" fill="#0f77e1" />
      <g id="Group_127" data-name="Group 127" transform="translate(9.426 5.547)">
        <g id="Group_98" data-name="Group 98" transform="translate(0 0)">
          <path id="Path_907" data-name="Path 907" d="M56.394,54.491a3.034,3.034,0,1,1,0-3.806l3.129-1.4a6.4,6.4,0,1,0,0,6.591Z" transform="translate(-47.63 -46.18)" fill="#fff" />
          <path id="XMLID_24980_" d="M76.463,56.71,73.3,58.12,70.13,59.532,73.3,60.945l3.166,1.41-.838-2.822h0Z" transform="translate(-62.47 -53.125)" fill="#fff" />
        </g>
      </g>
    </g>
    <rect id="Rectangle_88" data-name="Rectangle 88" width="120" height="12" transform="translate(262 363)" fill="#707070" />
    <g id="checkout" transform="translate(262 466.027)">
      <g id="Group_136" data-name="Group 136" transform="translate(0 -18)">
        <rect id="Rectangle_80-3" data-name="Rectangle 80" width="238" height="28" transform="translate(0 -0.027)" fill="#4e4e4e" />
        <text id="Checkout-2" data-name="Checkout" transform="translate(75.515 18.623)" fill="#c4c1c1" font-size="14" font-family="Mont-Regular, Mont">
          <tspan x="0" y="0">Checkout</tspan>
        </text>
        <path id="Path_1017" data-name="Path 1017" d="M-13636.434,6579.074v2.749h11.176v3.239l5-5-5-4.643v3.651Z" transform="translate(13796.336 -6566.116)" fill="#c9c5c5" />
      </g>
      <rect id="Rectangle_82" data-name="Rectangle 82" width="122" height="28" transform="translate(0 -83.027)" fill="#c7c7c7" />
      <rect id="Rectangle_84" data-name="Rectangle 84" width="113" height="28" transform="translate(125 -83.027)" fill="#e1e1e1" />
      <rect id="Rectangle_85" data-name="Rectangle 85" width="113" height="29" transform="translate(125 -55.027)" fill="#e1e1e1" />
      <rect id="Rectangle_83" data-name="Rectangle 83" width="122" height="28" transform="translate(0 -54.027)" fill="#c7c7c7" />
      <path id="Path_1029" data-name="Path 1029" d="M5.566-2.028c0-1.515-1.292-1.83-2.321-2.086-.707-.175-1.292-.313-1.292-.79,0-.414.477-.6.953-.6.545,0,1.02.268,1.02.834H5.368A2,2,0,0,0,3.525-6.785v-.65H2.365v.647A1.916,1.916,0,0,0,.5-4.84c0,1.459,1.237,1.754,2.255,2,.727.174,1.332.311,1.332.83,0,.474-.537.75-1.086.75-.587,0-1.126-.3-1.126-.927H.406A2.187,2.187,0,0,0,2.444.057v.7H3.6v-.7A2.069,2.069,0,0,0,5.566-2.028Zm3.413.687c1.554-1.8,1.9-2.542,1.9-3.358A2.073,2.073,0,0,0,8.657-6.786,2.041,2.041,0,0,0,6.473-4.681v.144H7.9v-.127a.74.74,0,0,1,.779-.789.728.728,0,0,1,.762.771c0,.687-.358,1.206-3.1,4.37V0h4.662V-1.341Zm5.843-3.074a2.12,2.12,0,0,0-.618.094c.406-.708.8-1.376,1.358-2.34H13.992L12.67-4.385a4.044,4.044,0,0,0-.689,2.11A2.351,2.351,0,0,0,14.505.12a2.355,2.355,0,0,0,2.5-2.395,2.079,2.079,0,0,0-2.188-2.141ZM14.5-1.2a1.034,1.034,0,0,1-1.075-1.07A1.035,1.035,0,0,1,14.5-3.353,1.029,1.029,0,0,1,15.57-2.275,1.028,1.028,0,0,1,14.5-1.2ZM20.5.12c1.654,0,2.694-1.33,2.694-3.45S22.163-6.778,20.5-6.778,17.8-5.459,17.8-3.33,18.844.12,20.5.12Zm0-1.333c-.815,0-1.256-.749-1.256-2.117s.444-2.115,1.256-2.115,1.255.757,1.255,2.124S21.31-1.213,20.5-1.213Z" transform="translate(131 -39.027)" fill="#8a8585" />
      <path id="Path_1028" data-name="Path 1028" d="M5.566-2.028c0-1.515-1.292-1.83-2.321-2.086-.707-.175-1.292-.313-1.292-.79,0-.414.477-.6.953-.6.545,0,1.02.268,1.02.834H5.368A2,2,0,0,0,3.525-6.785v-.65H2.365v.647A1.916,1.916,0,0,0,.5-4.84c0,1.459,1.237,1.754,2.255,2,.727.174,1.332.311,1.332.83,0,.474-.537.75-1.086.75-.587,0-1.126-.3-1.126-.927H.406A2.187,2.187,0,0,0,2.444.057v.7H3.6v-.7A2.069,2.069,0,0,0,5.566-2.028Zm3.413.687c1.554-1.8,1.9-2.542,1.9-3.358A2.073,2.073,0,0,0,8.657-6.786,2.041,2.041,0,0,0,6.473-4.681v.144H7.9v-.127a.74.74,0,0,1,.779-.789.728.728,0,0,1,.762.771c0,.687-.358,1.206-3.1,4.37V0h4.662V-1.341Zm5.843-3.074a2.12,2.12,0,0,0-.618.094c.406-.708.8-1.376,1.358-2.34H13.992L12.67-4.385a4.044,4.044,0,0,0-.689,2.11A2.351,2.351,0,0,0,14.505.12a2.355,2.355,0,0,0,2.5-2.395,2.079,2.079,0,0,0-2.188-2.141ZM14.5-1.2a1.034,1.034,0,0,1-1.075-1.07A1.035,1.035,0,0,1,14.5-3.353,1.029,1.029,0,0,1,15.57-2.275,1.028,1.028,0,0,1,14.5-1.2ZM20.5.12c1.654,0,2.694-1.33,2.694-3.45S22.163-6.778,20.5-6.778,17.8-5.459,17.8-3.33,18.844.12,20.5.12Zm0-1.333c-.815,0-1.256-.749-1.256-2.117s.444-2.115,1.256-2.115,1.255.757,1.255,2.124S21.31-1.213,20.5-1.213Z" transform="translate(131 -67.027)" fill="#8a8585" />
      <line id="Line_26" data-name="Line 26" x2="121" transform="translate(0.043 -54.5)" fill="none" stroke="#707070" stroke-width="1.5" />
      <line id="Line_27" data-name="Line 27" x2="113" transform="translate(125.043 -54.5)" fill="none" stroke="#707070" stroke-width="1.5" />
      <path id="Path_1027" data-name="Path 1027" d="M6.418-8.4H.253v.987H2.809V0H3.862V-7.413H6.418ZM9.759.142A3.323,3.323,0,0,0,13.195-3.24,3.323,3.323,0,0,0,9.759-6.622,3.317,3.317,0,0,0,6.324-3.24,3.324,3.324,0,0,0,9.759.142Zm0-.987A2.316,2.316,0,0,1,7.365-3.24,2.315,2.315,0,0,1,9.759-5.635,2.316,2.316,0,0,1,12.153-3.24,2.316,2.316,0,0,1,9.759-.845Zm7.585-.1A1.225,1.225,0,0,1,15.982-2.3V-5.559h2.032V-6.48H15.982V-7.852h-.16l-2,2.111v.183h1.14v3.293A2.09,2.09,0,0,0,17.213,0h.839V-.943ZM24.852-6.48l-.127.993a3.283,3.283,0,0,0-2.556-1.135A3.284,3.284,0,0,0,18.816-3.24,3.291,3.291,0,0,0,22.169.142,3.285,3.285,0,0,0,24.712-.982L24.82,0h.845V-6.48ZM22.246-.845A2.333,2.333,0,0,1,19.858-3.24a2.334,2.334,0,0,1,2.388-2.395A2.315,2.315,0,0,1,24.623-3.24,2.315,2.315,0,0,1,22.246-.845ZM27.716,0h1.02V-8.793h-1.02Z" transform="translate(16 -65.027)" fill="#4e4e4e" />
      <path id="Path_1026" data-name="Path 1026" d="M3.651.107c1.673,0,2.963-.9,2.963-2.491,0-1.747-1.487-2.1-2.808-2.423-1.077-.254-2.042-.485-2.042-1.407,0-.8.764-1.283,1.784-1.283s1.787.545,1.787,1.479H6.375c0-1.521-1.064-2.488-2.807-2.488S.71-7.621.71-6.171c0,1.676,1.435,2.02,2.732,2.329,1.09.255,2.086.486,2.086,1.469,0,.89-.835,1.449-1.888,1.449-1.164,0-2.014-.619-2.014-1.664H.55C.55-.934,1.8.107,3.651.107Zm7.3.035a2.693,2.693,0,0,0,2.873-2.876V-6.48h-1.02V-2.9A1.815,1.815,0,0,1,10.955-.845,1.815,1.815,0,0,1,9.1-2.9V-6.48H8.082v3.746A2.7,2.7,0,0,0,10.955.142ZM19.2-6.622a3.33,3.33,0,0,0-2.4.963V-8.793h-1.02V0h.79L16.7-.922A3.316,3.316,0,0,0,19.2.142,3.259,3.259,0,0,0,22.537-3.24,3.253,3.253,0,0,0,19.2-6.622ZM19.119-.845A2.34,2.34,0,0,1,16.73-3.24a2.333,2.333,0,0,1,2.388-2.395A2.315,2.315,0,0,1,21.5-3.24,2.315,2.315,0,0,1,19.119-.845ZM28.606-8.4H22.441v.987H25V0H26.05V-7.413h2.556ZM31.947.142A3.323,3.323,0,0,0,35.383-3.24a3.323,3.323,0,0,0-3.436-3.382A3.317,3.317,0,0,0,28.512-3.24,3.324,3.324,0,0,0,31.947.142Zm0-.987A2.316,2.316,0,0,1,29.553-3.24a2.315,2.315,0,0,1,2.394-2.395A2.316,2.316,0,0,1,34.341-3.24,2.316,2.316,0,0,1,31.947-.845Zm7.585-.1A1.225,1.225,0,0,1,38.17-2.3V-5.559H40.2V-6.48H38.17V-7.852h-.16l-2,2.111v.183h1.14v3.293A2.09,2.09,0,0,0,39.4,0h.839V-.943ZM47.04-6.48l-.127.993a3.283,3.283,0,0,0-2.556-1.135A3.284,3.284,0,0,0,41-3.24,3.291,3.291,0,0,0,44.357.142,3.285,3.285,0,0,0,46.9-.982L47.008,0h.845V-6.48ZM44.434-.845A2.333,2.333,0,0,1,42.046-3.24a2.334,2.334,0,0,1,2.388-2.395A2.315,2.315,0,0,1,46.811-3.24,2.315,2.315,0,0,1,44.434-.845ZM49.9,0h1.02V-8.793H49.9Z" transform="translate(16 -37.027)" fill="#4e4e4e" />
    </g>
  </g>
</svg>